<?xml version="1.0"?>
<svg xmlns="http://www.w3.org/2000/svg" id="Layer_1" data-name="Layer 1" viewBox="0 0 597.15 181.8">
  <defs>
    <style>.cls-1{fill:#1d1d1b;}.cls-2{fill:#3bb9c4;}.cls-3{fill:#fc273f;}</style>
  </defs>
  <path class="cls-1" d="M295.57,175.51c10.57,0,20.25-3.82,26.42-15.41v13.06h14.67v-77H322v41.67c0,15.85-9.54,25.1-22.6,25.1-8.37,0-16.44-3.82-16.44-21.14V96.12H268.28v47c0,22,10.12,32.43,27.29,32.43" transform="translate(-43.42 -35.78)"/>
  <path class="cls-1" d="M386,175.51c17.76,0,29.35-7.78,29.35-22.46,0-16.87-11.59-21.13-27.15-24.65-15-3.37-21.72-5.43-21.72-13.06s7.93-9.54,16.44-9.54c6.89,0,15,2.64,16,13.79h14.53c-.15-15.7-11.88-25.82-29.5-25.82-17.46,0-31.55,6.9-31.55,21.86,0,17.17,14.38,20.84,32.87,25.39,7.64,1.76,15.56,4.4,15.56,12.33,0,6.46-5.58,10.12-13.94,10.12-13.5,0-21.43-3.66-24.07-15.55H348.4c0,17.31,16.29,27.59,37.57,27.59" transform="translate(-43.42 -35.78)"/>
  <path class="cls-1" d="M439.53,128.25c0-15.11,9.54-21.86,20.84-21.86s20.54,6.9,20.54,21.86Zm-.15,11.3h56.06V127.81c0-20.69-14.67-34-34.93-34-22.74,0-36.09,16.87-36.09,40.65,0,23.33,12.76,41.09,36.68,41.09,21.43,0,32.87-14.24,34.34-24.8H480.91c-1.9,5.43-9,12.18-19.81,12.18-13.06,0-20.54-9.1-21.72-23.34" transform="translate(-43.42 -35.78)"/>
  <rect class="cls-1" x="496.63" y="60.34" width="14.67" height="77.04"/>
  <path class="cls-1" d="M625.9,137.94c0,15-8.95,24.8-22.6,24.8s-22.75-11.3-22.75-28.47c0-16.73,9-27.74,22.46-27.74,13.79,0,22.89,9.11,22.89,23Zm14.68,35.22V61.63H625.9v44.9c-6-7.77-15.41-12.76-24.95-12.76-21.13,0-35.07,16.29-35.07,40.65,0,24.65,13.79,41.09,34.34,41.09,10.12,0,20.84-4.85,26.12-12v9.69Z" transform="translate(-43.42 -35.78)"/>
  <path class="cls-1" d="M514.81,175.51a8,8,0,1,0-8-8,8,8,0,0,0,8,8" transform="translate(-43.42 -35.78)"/>
  <path class="cls-2" d="M103.81,217.58a60.39,60.39,0,1,0-60.39-60.39,60.39,60.39,0,0,0,60.39,60.39" transform="translate(-43.42 -35.78)"/>
  <path class="cls-3" d="M164.83,64.34a5.17,5.17,0,1,0-5.17-5.17,5.16,5.16,0,0,0,5.17,5.17" transform="translate(-43.42 -35.78)"/>
  <path class="cls-3" d="M164.83,46.12A5.17,5.17,0,1,0,159.66,41a5.17,5.17,0,0,0,5.17,5.17" transform="translate(-43.42 -35.78)"/>
  <path class="cls-3" d="M170,151.38a5.16,5.16,0,0,0-6.75-4.92,61.56,61.56,0,0,1,.94,10,4.58,4.58,0,0,0,.64,0,5.16,5.16,0,0,0,5.17-5.17" transform="translate(-43.42 -35.78)"/>
  <path class="cls-3" d="M114.53,97.75a5.16,5.16,0,1,0-10.08-1.59,4.63,4.63,0,0,0,0,.65,61.44,61.44,0,0,1,10,.94" transform="translate(-43.42 -35.78)"/>
  <path class="cls-3" d="M135.41,55.67a5.17,5.17,0,1,0-7.22-1.14,5.18,5.18,0,0,0,7.22,1.14" transform="translate(-43.42 -35.78)"/>
  <path class="cls-3" d="M200.33,145a5.17,5.17,0,1,0-7.22-1.15,5.18,5.18,0,0,0,7.22,1.15" transform="translate(-43.42 -35.78)"/>
  <path class="cls-3" d="M117.23,80.7A5.17,5.17,0,1,0,110.72,84a5.16,5.16,0,0,0,6.51-3.32" transform="translate(-43.42 -35.78)"/>
  <path class="cls-3" d="M222.26,114.83a5.17,5.17,0,1,0-6.51,3.31,5.18,5.18,0,0,0,6.51-3.31" transform="translate(-43.42 -35.78)"/>
  <path class="cls-3" d="M222.26,77.5A5.17,5.17,0,1,0,218.94,84a5.16,5.16,0,0,0,3.32-6.52" transform="translate(-43.42 -35.78)"/>
  <path class="cls-3" d="M200.33,47.31a5.17,5.17,0,1,0,1.14,7.22,5.17,5.17,0,0,0-1.14-7.22" transform="translate(-43.42 -35.78)"/>
  <path class="cls-3" d="M149.37,48.57a5.17,5.17,0,1,0-6.52-3.32,5.17,5.17,0,0,0,6.52,3.32" transform="translate(-43.42 -35.78)"/>
  <path class="cls-3" d="M183.49,153.6a5.17,5.17,0,1,0-6.51-3.32,5.18,5.18,0,0,0,6.51,3.32" transform="translate(-43.42 -35.78)"/>
  <path class="cls-3" d="M124.34,66.75a5.17,5.17,0,1,0-7.22,1.14,5.17,5.17,0,0,0,7.22-1.14" transform="translate(-43.42 -35.78)"/>
  <path class="cls-3" d="M213.69,131.66a5.17,5.17,0,1,0-7.22,1.14,5.18,5.18,0,0,0,7.22-1.14" transform="translate(-43.42 -35.78)"/>
  <path class="cls-3" d="M225.22,96.16a5.17,5.17,0,1,0-5.17,5.17,5.17,5.17,0,0,0,5.17-5.17" transform="translate(-43.42 -35.78)"/>
  <path class="cls-3" d="M213.69,60.67a5.17,5.17,0,1,0-1.15,7.22,5.17,5.17,0,0,0,1.15-7.22" transform="translate(-43.42 -35.78)"/>
  <path class="cls-3" d="M183.49,38.73a5.17,5.17,0,1,0,3.32,6.52,5.17,5.17,0,0,0-3.32-6.52" transform="translate(-43.42 -35.78)"/>
  <path class="cls-3" d="M137.27,80.25a5.17,5.17,0,1,0-7.06,1.89,5.17,5.17,0,0,0,7.06-1.89" transform="translate(-43.42 -35.78)"/>
  <path class="cls-3" d="M148.92,68.6a5.17,5.17,0,1,0-7.06-1.89,5.16,5.16,0,0,0,7.06,1.89" transform="translate(-43.42 -35.78)"/>
  <path class="cls-3" d="M133,96.16a5.17,5.17,0,1,0-5.17,5.17A5.17,5.17,0,0,0,133,96.16" transform="translate(-43.42 -35.78)"/>
  <path class="cls-3" d="M151.5,96.16a5.17,5.17,0,1,0-5.16,5.17,5.16,5.16,0,0,0,5.16-5.17" transform="translate(-43.42 -35.78)"/>
  <path class="cls-3" d="M160.82,80.15a5.17,5.17,0,1,0-5.17,5.16,5.16,5.16,0,0,0,5.17-5.16" transform="translate(-43.42 -35.78)"/>
  <path class="cls-3" d="M169,80.15a5.17,5.17,0,1,1,5.17,5.16A5.16,5.16,0,0,1,169,80.15" transform="translate(-43.42 -35.78)"/>
  <path class="cls-3" d="M179.32,112.18a5.17,5.17,0,1,0-5.17,5.17,5.18,5.18,0,0,0,5.17-5.17" transform="translate(-43.42 -35.78)"/>
  <path class="cls-3" d="M150.48,112.18a5.17,5.17,0,1,1,5.17,5.17,5.18,5.18,0,0,1-5.17-5.17" transform="translate(-43.42 -35.78)"/>
  <path class="cls-3" d="M170,96.16a5.17,5.17,0,1,0-5.17,5.17A5.16,5.16,0,0,0,170,96.16" transform="translate(-43.42 -35.78)"/>
  <path class="cls-3" d="M188.5,96.16a5.17,5.17,0,1,0-5.17,5.17,5.17,5.17,0,0,0,5.17-5.17" transform="translate(-43.42 -35.78)"/>
  <path class="cls-3" d="M164.83,138.33a5.17,5.17,0,1,0-5.17-5.17,5.17,5.17,0,0,0,5.17,5.17" transform="translate(-43.42 -35.78)"/>
  <path class="cls-3" d="M201.34,117.25a5.17,5.17,0,1,0-7.06,1.89,5.16,5.16,0,0,0,7.06-1.89" transform="translate(-43.42 -35.78)"/>
  <path class="cls-3" d="M201.35,75.08a5.17,5.17,0,1,0-1.9,7.06,5.18,5.18,0,0,0,1.9-7.06" transform="translate(-43.42 -35.78)"/>
  <path class="cls-3" d="M185.91,132.68a5.17,5.17,0,1,0-7.06-1.89,5.17,5.17,0,0,0,7.06,1.89" transform="translate(-43.42 -35.78)"/>
  <path class="cls-3" d="M207,96.16a5.17,5.17,0,1,0-5.16,5.17A5.16,5.16,0,0,0,207,96.16" transform="translate(-43.42 -35.78)"/>
  <path class="cls-3" d="M185.91,59.65a5.17,5.17,0,1,0,1.89,7.06,5.17,5.17,0,0,0-1.89-7.06" transform="translate(-43.42 -35.78)"/>
  <path class="cls-1" d="M117.23,111.63a5.17,5.17,0,1,0-3.32,6.51,5.17,5.17,0,0,0,3.32-6.51" transform="translate(-43.42 -35.78)"/>
  <path class="cls-1" d="M135.41,136.66a5.17,5.17,0,1,0,1.15,7.21,5.17,5.17,0,0,0-1.15-7.21" transform="translate(-43.42 -35.78)"/>
  <path class="cls-1" d="M124.34,125.58a5.17,5.17,0,1,0-1.14,7.22,5.17,5.17,0,0,0,1.14-7.22" transform="translate(-43.42 -35.78)"/>
  <path class="cls-1" d="M149.37,143.76a5.17,5.17,0,1,0,3.31,6.52,5.18,5.18,0,0,0-3.31-6.52" transform="translate(-43.42 -35.78)"/>
  <path class="cls-1" d="M137.27,112.08a5.17,5.17,0,1,0-1.89,7.06,5.17,5.17,0,0,0,1.89-7.06" transform="translate(-43.42 -35.78)"/>
  <path class="cls-1" d="M148.92,123.73a5.17,5.17,0,1,0,1.89,7.06,5.17,5.17,0,0,0-1.89-7.06" transform="translate(-43.42 -35.78)"/>
  <path class="cls-1" d="M109.61,101.33a5.17,5.17,0,0,0,4.92-3.58,61.44,61.44,0,0,0-10-.94,5.16,5.16,0,0,0,5.12,4.52" transform="translate(-43.42 -35.78)"/>
  <path class="cls-1" d="M164.19,156.51a61.56,61.56,0,0,0-.94-10,5.17,5.17,0,0,0,.94,10" transform="translate(-43.42 -35.78)"/>
</svg>
